<svg xmlns="http://www.w3.org/2000/svg" viewBox="0 0 213.49 271.82"><title>logo-white</title><g id="Layer_1" data-name="Layer 1"><polygon points="145.81 12.44 67.68 12.44 12.44 67.68 12.44 145.81 67.68 201.05 145.81 201.05 201.05 145.81 201.05 67.68 145.81 12.44" style="fill:none;stroke:#faf4f3;stroke-miterlimit:10"/><line x1="12.44" y1="67.68" x2="145.8" y2="12.44" style="fill:none;stroke:#faf4f3;stroke-miterlimit:10"/><rect x="9.08" y="66.24" width="6.6" height="6.6" transform="translate(-25.61 8.17) rotate(-22.5)" style="fill:#faf4f3"/><line x1="145.8" y1="12.44" x2="201.05" y2="145.8" style="fill:none;stroke:#faf4f3;stroke-miterlimit:10"/><rect x="142.45" y="11" width="6.6" height="6.6" transform="translate(5.68 55.01) rotate(-22.5)" style="fill:#faf4f3"/><line x1="201.05" y1="145.8" x2="67.68" y2="201.05" style="fill:none;stroke:#faf4f3;stroke-miterlimit:10"/><rect x="197.69" y="144.36" width="6.6" height="6.6" transform="translate(-41.15 86.3) rotate(-22.5)" style="fill:#faf4f3"/><line x1="67.68" y1="201.05" x2="12.44" y2="67.68" style="fill:none;stroke:#faf4f3;stroke-miterlimit:10"/><rect x="64.32" y="199.6" width="6.6" height="6.6" transform="translate(-72.45 39.47) rotate(-22.5)" style="fill:#faf4f3"/><path d="M200.73,68.91" transform="translate(0.06 -1.86)" style="fill:none"/><path d="M67,14.56" transform="translate(0.06 -1.86)" style="fill:none"/><path d="M146.38,202.64" transform="translate(0.06 -1.86)" style="fill:none"/><path d="M200.73,68.91" transform="translate(0.06 -1.86)" style="fill:none"/><path d="M12.65,148.29" transform="translate(0.06 -1.86)" style="fill:none"/><path d="M146.38,202.64" transform="translate(0.06 -1.86)" style="fill:none"/><path d="M67,14.56" transform="translate(0.06 -1.86)" style="fill:none"/><path d="M12.65,148.29" transform="translate(0.06 -1.86)" style="fill:none"/><polygon points="106.74 4.67 34.56 34.56 4.67 106.74 34.56 178.92 106.74 208.82 178.92 178.92 208.82 106.74 178.92 34.56 106.74 4.67" style="fill:none;stroke:#faf4f3;stroke-miterlimit:10"/><line x1="34.08" y1="35.05" x2="178.44" y2="34.08" style="fill:none;stroke:#faf4f3;stroke-miterlimit:10"/><rect x="30.73" y="33.61" width="6.6" height="6.6" transform="translate(-0.19 -1.63) rotate(-0.38)" style="fill:#faf4f3"/><line x1="178.44" y1="34.08" x2="179.4" y2="178.44" style="fill:none;stroke:#faf4f3;stroke-miterlimit:10"/><rect x="175.08" y="32.64" width="6.6" height="6.6" transform="translate(-0.18 -0.66) rotate(-0.38)" style="fill:#faf4f3"/><line x1="179.4" y1="178.44" x2="35.05" y2="179.4" style="fill:none;stroke:#faf4f3;stroke-miterlimit:10"/><rect x="176.05" y="176.99" width="6.6" height="6.6" transform="translate(-1.15 -0.65) rotate(-0.38)" style="fill:#faf4f3"/><line x1="35.05" y1="179.4" x2="34.08" y2="35.05" style="fill:none;stroke:#faf4f3;stroke-miterlimit:10"/><rect x="31.69" y="177.96" width="6.6" height="6.6" transform="translate(-1.16 -1.62) rotate(-0.38)" style="fill:#faf4f3"/><path d="M78.21,85.71v22.41H71.42v-35h5.27L94.91,96.1V73.19h6.8v34.93H96.19Z" transform="translate(0.06 -1.86)" style="fill:#faf4f3"/><path d="M141.1,99.1a7.91,7.91,0,0,1-3.32,6.7,11.56,11.56,0,0,1-3.6,1.73,15.78,15.78,0,0,1-4.36.59H112.93v-35h18.71a6.94,6.94,0,0,1,3.3.79,8.26,8.26,0,0,1,2.52,2,9.37,9.37,0,0,1,1.6,2.85,9.59,9.59,0,0,1,.56,3.23,9.43,9.43,0,0,1-1.28,4.8,7.75,7.75,0,0,1-3.74,3.33,9,9,0,0,1,4.75,3.17A9.18,9.18,0,0,1,141.1,99.1ZM119.72,79v8.81h9.07a4,4,0,0,0,2.93-1.18,4.36,4.36,0,0,0,1.21-3.25,4.48,4.48,0,0,0-1.11-3.2A3.6,3.6,0,0,0,129.08,79Zm14.53,18.86a5.09,5.09,0,0,0-1.18-3.3,4.18,4.18,0,0,0-1.28-1,3.64,3.64,0,0,0-1.62-.37H119.72v9.21h10.1a4.44,4.44,0,0,0,1.75-.34,4.16,4.16,0,0,0,1.4-1,4.61,4.61,0,0,0,1.28-3.23Z" transform="translate(0.06 -1.86)" style="fill:#faf4f3"/><path d="M72.82,150.36v-35h12.7A19,19,0,0,1,93,116.76a15.14,15.14,0,0,1,8.64,9.29,20.93,20.93,0,0,1,1.09,6.77,20.59,20.59,0,0,1-1.21,7.22,15.53,15.53,0,0,1-3.47,5.52,15.76,15.76,0,0,1-5.45,3.54,19.17,19.17,0,0,1-7.12,1.26Zm23.1-17.54a14.89,14.89,0,0,0-.69-4.63,10.32,10.32,0,0,0-2-3.64,9,9,0,0,0-3.28-2.37,11,11,0,0,0-4.41-.84H79.61V144.4h5.91a10.63,10.63,0,0,0,4.46-.89,9,9,0,0,0,3.25-2.44,10.75,10.75,0,0,0,2-3.67A14.7,14.7,0,0,0,95.92,132.82Z" transform="translate(0.06 -1.86)" style="fill:#faf4f3"/><path d="M118.92,127.94v22.42h-6.79v-35h5.27l18.22,23V115.43h6.8v34.93H136.9Z" transform="translate(0.06 -1.86)" style="fill:#faf4f3"/><path d="M8.38,237.33H7v-2.48h5l3.44,6.92a18.2,18.2,0,0,1,.88,2c0-1.18-.06-1.68-.06-2.22v-4.26H14.68v-2.48H20.3v2.48H18.94v12.2H16.5l-4.6-9.26c-.18-.38-.24-.52-.9-2,0,.5,0,1,0,1.12,0,.46,0,.78,0,1v6.46H12.6v2.48H7v-2.48H8.38Z" transform="translate(0.06 -1.86)" style="fill:#faf4f3"/><path d="M27.38,242.57c0-.82-.44-1.12-1.7-1.12a8.54,8.54,0,0,0-3.08.68L22,239.77a11.92,11.92,0,0,1,3.9-.66c2,0,3.38.58,4,1.7a5.4,5.4,0,0,1,.42,2.64v3.32h1.3v2.48H27.68v-.9a3.91,3.91,0,0,1-3.06,1.18c-2.28,0-3.56-1.12-3.56-3.12,0-1.84,1-2.92,3.14-3.26a20.08,20.08,0,0,1,3.18-.16Zm0,2.52a13,13,0,0,0-2.12.1c-.9.16-1.32.5-1.32,1.1s.36.84,1.32.84a2.92,2.92,0,0,0,1.78-.44c.28-.22.34-.38.34-.92Z" transform="translate(0.06 -1.86)" style="fill:#faf4f3"/><path d="M32.58,245.71H35v1.22a9,9,0,0,0,2.28.3c.84,0,1.34-.32,1.34-.86,0-.2-.14-.38-.42-.52a8.23,8.23,0,0,0-1.76-.42c-3-.6-3.94-1.34-3.94-3.1a3,3,0,0,1,1-2.34,4.12,4.12,0,0,1,3-.9,26.51,26.51,0,0,1,4.22.4v3.1h-2.4v-1.08a10.16,10.16,0,0,0-1.78-.16c-.82,0-1.18.22-1.18.72s.22.62,2.24,1.06a7.05,7.05,0,0,1,2.76.94,2.62,2.62,0,0,1,1,2.24c0,2.08-1.46,3.22-4.14,3.22a16.49,16.49,0,0,1-4.6-.64Z" transform="translate(0.06 -1.86)" style="fill:#faf4f3"/><path d="M43.7,237.33H42.36v-2.48h4.22v5.4a4.67,4.67,0,0,1,3-1.16c2.32,0,3.2,1.22,3.2,4.48v3.2h1.3v2.48h-5.3v-2.48h1.12v-3.36c0-1.18-.36-1.76-1.1-1.76a3.39,3.39,0,0,0-2.26,1.18v3.94h1.2v2.48H42.36v-2.48H43.7Z" transform="translate(0.06 -1.86)" style="fill:#faf4f3"/><path d="M54.38,241.85v-2.48h5.16v2.48H58.6l.94,2.64a18.87,18.87,0,0,1,.54,1.82c.1-.3.18-.62.28-.94s.2-.66.28-.88l1-2.64h-1v-2.48H65.7v2.48H64.54l-3.22,7.68H58.58l-3-7.68Z" transform="translate(0.06 -1.86)" style="fill:#faf4f3"/><path d="M67.78,241.85H66.44v-2.48h4.22v7.4H72v2.48H66.27v-2.48h1.51Zm-.24-6.78h2.88v3H67.54Z" transform="translate(0.06 -1.86)" style="fill:#faf4f3"/><path d="M74.34,237.33H73v-2.48h4.22v11.92h1.34v2.48H72.84v-2.48h1.5Z" transform="translate(0.06 -1.86)" style="fill:#faf4f3"/><path d="M80.9,237.33H79.55v-2.48h4.23v11.92h1.34v2.48H79.39v-2.48H80.9Z" transform="translate(0.06 -1.86)" style="fill:#faf4f3"/><path d="M89,245.25a2.07,2.07,0,0,0,2.31,1.8,5.73,5.73,0,0,0,3.24-1l1.28,2.16a8.38,8.38,0,0,1-4.58,1.36c-3.19,0-5.17-2-5.17-5.24s1.9-5.22,5-5.22a4.37,4.37,0,0,1,4.34,2.72,8.75,8.75,0,0,1,.5,3.44Zm4.11-2.12A1.9,1.9,0,0,0,91,241.47a1.93,1.93,0,0,0-2,1.66Z" transform="translate(0.06 -1.86)" style="fill:#faf4f3"/><path d="M104.05,237.33h-1.36v-2.48h6.77c3.2,0,4.78,1.2,4.78,3.6a3.25,3.25,0,0,1-1.7,3.08,3.34,3.34,0,0,1,2.32,3.36c0,2.78-2.06,4.36-5.72,4.36h-6.45v-2.48h1.36Zm4.75,3.1a3.9,3.9,0,0,0,1.78-.26,1.39,1.39,0,0,0,.74-1.28c0-1-.76-1.56-2.14-1.56h-2.25v3.1Zm-.32,6.34a5,5,0,0,0,2.34-.34,1.7,1.7,0,0,0,1-1.64c0-1.32-1-2-2.9-2h-2v4Z" transform="translate(0.06 -1.86)" style="fill:#faf4f3"/><path d="M117.51,237.33h-1.34v-2.48h4.22v11.92h1.34v2.48H116v-2.48h1.5Z" transform="translate(0.06 -1.86)" style="fill:#faf4f3"/><path d="M132.77,244.31c0,3.14-2,5.22-5,5.22s-5.08-2.06-5.08-5.3a4.84,4.84,0,0,1,5.06-5.14C130.77,239.09,132.77,241.15,132.77,244.31Zm-7.2,0c0,1.74.8,2.78,2.14,2.78s2.15-1,2.15-2.74-.83-2.74-2.15-2.74S125.57,242.61,125.57,244.27Z" transform="translate(0.06 -1.86)" style="fill:#faf4f3"/><path d="M140,242.83v-1.1a3.67,3.67,0,0,0-1.08-.16c-1.26,0-2,1-2,2.72s.74,2.76,2.14,2.76a4.84,4.84,0,0,0,2.87-1l1.3,2.16a6.56,6.56,0,0,1-4.29,1.36,4.68,4.68,0,0,1-3.56-1.2,5.24,5.24,0,0,1-1.38-3.9,5.55,5.55,0,0,1,1.4-4,4.67,4.67,0,0,1,3.6-1.32,14.79,14.79,0,0,1,3.47.4v3.34Z" transform="translate(0.06 -1.86)" style="fill:#faf4f3"/><path d="M144.85,237.33h-1.34v-2.48h4.22V247h.72v2.28h-4.94v-2.48h1.34Zm3,6.5,2.56-2.26h-1v-2.2h5.21v2.44h-1l-2.28,2.06,2.7,2.9h1.26v2.48H150V247h.68Z" transform="translate(0.06 -1.86)" style="fill:#faf4f3"/><path d="M161.84,242.83v-1.1a3.83,3.83,0,0,0-1.09-.16c-1.26,0-2,1-2,2.72s.74,2.76,2.14,2.76a4.79,4.79,0,0,0,2.86-1l1.31,2.16a6.58,6.58,0,0,1-4.29,1.36,4.68,4.68,0,0,1-3.56-1.2,5.24,5.24,0,0,1-1.38-3.9,5.55,5.55,0,0,1,1.4-4,4.68,4.68,0,0,1,3.61-1.32,14.71,14.71,0,0,1,3.46.4v3.34Z" transform="translate(0.06 -1.86)" style="fill:#faf4f3"/><path d="M166.73,237.33h-1.34v-2.48h4.22v5.4a4.69,4.69,0,0,1,3-1.16c2.32,0,3.2,1.22,3.2,4.48v3.2h1.3v2.48h-5.3v-2.48H173v-3.36c0-1.18-.37-1.76-1.11-1.76a3.39,3.39,0,0,0-2.26,1.18v3.94h1.2v2.48h-5.42v-2.48h1.34Z" transform="translate(0.06 -1.86)" style="fill:#faf4f3"/><path d="M184.19,242.57c0-.82-.44-1.12-1.7-1.12a8.54,8.54,0,0,0-3.08.68l-.62-2.36a11.92,11.92,0,0,1,3.9-.66c2,0,3.38.58,4,1.7a5.26,5.26,0,0,1,.43,2.64v3.32h1.3v2.48h-3.89v-.9a3.91,3.91,0,0,1-3.06,1.18c-2.28,0-3.56-1.12-3.56-3.12,0-1.84,1-2.92,3.14-3.26a20.08,20.08,0,0,1,3.18-.16Zm0,2.52a13,13,0,0,0-2.12.1c-.9.16-1.32.5-1.32,1.1s.36.84,1.32.84a3,3,0,0,0,1.79-.44c.27-.22.33-.38.33-.92Z" transform="translate(0.06 -1.86)" style="fill:#faf4f3"/><path d="M190.59,241.85h-1.34v-2.48h4.22v7.4h1.34v2.48h-5.72v-2.48h1.5Zm-.24-6.78h2.88v3h-2.88Z" transform="translate(0.06 -1.86)" style="fill:#faf4f3"/><path d="M197,241.85h-1.34v-2.48h4.22v1a4.61,4.61,0,0,1,3.11-1.24c2.29,0,3.16,1.22,3.16,4.48v3.2h1.3v2.48h-5.31v-2.48h1.12v-3.36c0-1.18-.35-1.76-1.1-1.76a3.5,3.5,0,0,0-2.28,1.2v3.92h1.22v2.48h-5.44v-2.48H197Z" transform="translate(0.06 -1.86)" style="fill:#faf4f3"/><path d="M36.18,260.89H35.07v-1.11h3.48c3.45,0,5.4,2,5.4,5.4a5.29,5.29,0,0,1-1.62,4.19,5.4,5.4,0,0,1-3.78,1.21H35.07v-1.11h1.11Zm2.4,8.58c2.59,0,4-1.51,4-4.29s-1.43-4.29-4-4.29H37.5v8.58Z" transform="translate(0.06 -1.86)" style="fill:#faf4f3"/><path d="M46.5,267.31a3,3,0,0,0,.39,1.47,2.1,2.1,0,0,0,1.87.9,4.14,4.14,0,0,0,2.43-.78l.62,1a5.51,5.51,0,0,1-3.09.9c-2.18,0-3.51-1.41-3.51-3.72s1.36-3.79,3.45-3.79A3,3,0,0,1,51.48,265a4.8,4.8,0,0,1,.49,2.35Zm4.2-1a2,2,0,0,0-2.06-1.95,2.1,2.1,0,0,0-2.11,1.95Z" transform="translate(0.06 -1.86)" style="fill:#faf4f3"/><path d="M52.51,264.6v-1.11h3.21v1.11h-1L56,268c.09.24.22.66.33,1.05.12-.42.27-.9.33-1.07L58,264.6H57v-1.11h3.18v1.11h-.87l-2.53,6.18h-.92l-2.49-6.18Z" transform="translate(0.06 -1.86)" style="fill:#faf4f3"/><path d="M62,267.31a3.08,3.08,0,0,0,.39,1.47,2.12,2.12,0,0,0,1.88.9,4.18,4.18,0,0,0,2.43-.78l.61,1a5.49,5.49,0,0,1-3.09.9c-2.17,0-3.51-1.41-3.51-3.72s1.37-3.79,3.45-3.79A3,3,0,0,1,67,265a4.8,4.8,0,0,1,.5,2.35Zm4.2-1a2,2,0,0,0-2-1.95,2.1,2.1,0,0,0-2.12,1.95Z" transform="translate(0.06 -1.86)" style="fill:#faf4f3"/><path d="M69.72,260.89H68.61v-1.11H71v9.69h1.07v1.11h-3.5v-1.11h1.16Z" transform="translate(0.06 -1.86)" style="fill:#faf4f3"/><path d="M80.13,267a3.43,3.43,0,0,1-3.53,3.76c-2.17,0-3.54-1.47-3.54-3.81a3.54,3.54,0,1,1,7.07,0Zm-5.78,0c0,1.71.83,2.68,2.25,2.68s2.24-1,2.24-2.65-.84-2.64-2.24-2.64S74.35,265.38,74.35,267Z" transform="translate(0.06 -1.86)" style="fill:#faf4f3"/><path d="M82.18,264.6H81.09v-1.11h2.26v1.11a7,7,0,0,1,.6-.66,2.66,2.66,0,0,1,1.83-.66c1.89,0,3.17,1.51,3.17,3.75s-1.29,3.76-3.18,3.76a2.67,2.67,0,0,1-2.31-1.24v3h1.29v1.11H81.09v-1.11h1.09Zm1.28,2.4c0,1.6.87,2.68,2.13,2.68s2.07-1,2.07-2.65-.81-2.64-2.07-2.64S83.46,265.48,83.46,267Z" transform="translate(0.06 -1.86)" style="fill:#faf4f3"/><path d="M91.42,267.31a3.08,3.08,0,0,0,.39,1.47,2.12,2.12,0,0,0,1.88.9,4.18,4.18,0,0,0,2.43-.78l.61,1a5.49,5.49,0,0,1-3.09.9c-2.17,0-3.51-1.41-3.51-3.72s1.37-3.79,3.45-3.79A3,3,0,0,1,96.4,265a4.8,4.8,0,0,1,.5,2.35Zm4.2-1a2,2,0,0,0-2.05-1.95,2.1,2.1,0,0,0-2.12,1.95Z" transform="translate(0.06 -1.86)" style="fill:#faf4f3"/><path d="M99.1,264.6H98v-1.11h2.34v1.26a2.38,2.38,0,0,1,2.19-1.46,3.32,3.32,0,0,1,1.2.2l-.21,1.14a2.59,2.59,0,0,0-1-.18c-.93,0-1.46.43-2.13,1.81v3.21h1.42v1.11H98v-1.11H99.1Z" transform="translate(0.06 -1.86)" style="fill:#faf4f3"/><path d="M104.55,268.3h1.08v1.17a7.65,7.65,0,0,0,2,.27c.95,0,1.47-.4,1.47-1.11a.87.87,0,0,0-.39-.76c-.22-.17-.4-.21-1.6-.42a4,4,0,0,1-2.06-.74,1.67,1.67,0,0,1-.54-1.33c0-1.32,1-2.1,2.6-2.1a13.26,13.26,0,0,1,2.64.3v2h-1.08v-1.11a8.93,8.93,0,0,0-1.59-.16c-.86,0-1.32.34-1.32,1a.77.77,0,0,0,.45.72,4.6,4.6,0,0,0,1.32.35,4.29,4.29,0,0,1,2.13.7,1.93,1.93,0,0,1,.66,1.52c0,1.39-1,2.2-2.75,2.2a11.22,11.22,0,0,1-3-.43Z" transform="translate(0.06 -1.86)" style="fill:#faf4f3"/><path d="M116.73,260.89h-1.11v-1.11h2.55l4.08,6.93c.15.26.16.3.63,1.26,0-.7,0-1,0-1.44v-5.64h-1.17v-1.11h3.49v1.11h-1.09v9.87h-.87l-4.76-8.11s-.16-.32-.28-.59-.15-.31-.26-.54c0,1,0,1,0,1.16v6.79h1.14v1.11h-3.48v-1.11h1.11Z" transform="translate(0.06 -1.86)" style="fill:#faf4f3"/><path d="M127.33,267.31a3.08,3.08,0,0,0,.39,1.47,2.12,2.12,0,0,0,1.88.9,4.18,4.18,0,0,0,2.43-.78l.61,1a5.49,5.49,0,0,1-3.09.9c-2.17,0-3.51-1.41-3.51-3.72s1.37-3.79,3.45-3.79a3,3,0,0,1,2.82,1.68,4.8,4.8,0,0,1,.5,2.35Zm4.2-1a2,2,0,0,0-2.05-1.95,2.1,2.1,0,0,0-2.12,1.95Z" transform="translate(0.06 -1.86)" style="fill:#faf4f3"/><path d="M133.42,263.49h1.37l.15-2.3h1.12v2.3h2.57v1.11h-2.57v3.61c0,1,.32,1.41,1.19,1.41a3.81,3.81,0,0,0,1.32-.25l.28,1.09a5.42,5.42,0,0,1-1.71.27,2.07,2.07,0,0,1-2.35-2.37V264.6h-1.37Z" transform="translate(0.06 -1.86)" style="fill:#faf4f3"/><path d="M139.32,264.6v-1.11h3.19v1.11h-1.08l1.13,3.16c.15.44.19.59.33,1.1.16-.54.22-.74.37-1.16l1.58-4.21h.52l1.55,4.26a10.41,10.41,0,0,1,.36,1.11c.16-.56.22-.77.33-1.07l1.18-3.19h-1.12v-1.11h3.19v1.11H150l-2.36,6.16h-.79l-1.52-4.24a7,7,0,0,1-.28-1c-.11.4-.14.52-.29.94l-1.54,4.26h-.78l-2.31-6.16Z" transform="translate(0.06 -1.86)" style="fill:#faf4f3"/><path d="M158.5,267a3.42,3.42,0,0,1-3.52,3.76c-2.18,0-3.54-1.47-3.54-3.81a3.54,3.54,0,1,1,7.06,0Zm-5.77,0c0,1.71.82,2.68,2.25,2.68s2.23-1,2.23-2.65-.84-2.64-2.23-2.64S152.73,265.38,152.73,267Z" transform="translate(0.06 -1.86)" style="fill:#faf4f3"/><path d="M160.74,264.6h-1.1v-1.11H162v1.26a2.4,2.4,0,0,1,2.19-1.46,3.29,3.29,0,0,1,1.2.2l-.21,1.14a2.56,2.56,0,0,0-1-.18c-.93,0-1.45.43-2.13,1.81v3.21h1.43v1.11h-3.8v-1.11h1.1Z" transform="translate(0.06 -1.86)" style="fill:#faf4f3"/><path d="M166.81,260.89H165.7v-1.11h2.39v9.75H169v1.05H165.7v-1.11h1.11Zm1.55,5.66,2.35-2h-.93v-1H173v1.09h-.82l-2.27,2,2.82,2.91h1v1.11h-3.32v-1.05h.81Z" transform="translate(0.06 -1.86)" style="fill:#faf4f3"/></g><g id="Layer_3" data-name="Layer 3"><line x1="67.05" y1="12.7" x2="200.78" y2="67.05" style="fill:none;stroke:#faf4f3;stroke-miterlimit:10"/><rect x="63.69" y="11.26" width="6.6" height="6.6" transform="translate(28.34 69.29) rotate(-67.88)" style="fill:#faf4f3"/><line x1="200.78" y1="67.05" x2="146.44" y2="200.78" style="fill:none;stroke:#faf4f3;stroke-miterlimit:10"/><rect x="197.43" y="65.61" width="6.6" height="6.6" transform="translate(61.37 227.07) rotate(-67.88)" style="fill:#faf4f3"/><line x1="146.44" y1="200.78" x2="12.7" y2="146.44" style="fill:none;stroke:#faf4f3;stroke-miterlimit:10"/><rect x="143.08" y="199.34" width="6.6" height="6.6" transform="translate(-96.41 260.1) rotate(-67.88)" style="fill:#faf4f3"/><line x1="12.7" y1="146.44" x2="67.05" y2="12.7" style="fill:none;stroke:#faf4f3;stroke-miterlimit:10"/><rect x="9.35" y="144.99" width="6.6" height="6.6" transform="translate(-129.44 102.32) rotate(-67.88)" style="fill:#faf4f3"/></g><g id="Layer_2" data-name="Layer 2"><line x1="4.67" y1="106.74" x2="106.74" y2="4.67" style="fill:none;stroke:#faf4f3;stroke-miterlimit:10"/><rect x="1.31" y="105.3" width="6.6" height="6.6" transform="translate(-75.39 33.21) rotate(-45)" style="fill:#faf4f3"/><line x1="106.74" y1="4.67" x2="208.82" y2="106.74" style="fill:none;stroke:#faf4f3;stroke-miterlimit:10"/><rect x="103.39" y="3.23" width="6.6" height="6.6" transform="translate(26.69 75.49) rotate(-45)" style="fill:#faf4f3"/><line x1="208.82" y1="106.74" x2="106.74" y2="208.82" style="fill:none;stroke:#faf4f3;stroke-miterlimit:10"/><rect x="205.46" y="105.3" width="6.6" height="6.6" transform="translate(-15.59 177.57) rotate(-45)" style="fill:#faf4f3"/><line x1="106.74" y1="208.82" x2="4.67" y2="106.74" style="fill:none;stroke:#faf4f3;stroke-miterlimit:10"/><rect x="103.39" y="207.37" width="6.6" height="6.6" transform="translate(-117.67 135.29) rotate(-45)" style="fill:#faf4f3"/></g></svg>